# xmcd
#
# Track frame offsets:
#	150
#	14407
#	27540
#	49036
#	69004
#	84156
#	101638
#	115370
#	134571
#	147885
#
# Disc length: 2183 seconds
#
# Revision: 1
# Processed by: cddbd v1.5.2PL0 Copyright (c) Steve Scherf et al.
# Submitted via: audiograbber 1.83.01
#
DISCID=8308850a
DTITLE=Various Artist - Country Radio February 2012
DYEAR=2012
DGENRE=Country
TTITLE0=Comin around Josh Thompson
TTITLE1=Let the cowboy rock Ronnie Dunn
TTITLE2=You dont know her like i do Brnatley Gilbert
TTITLE3=Camouflage Crowdless mix Brad Paisley
TTITLE4=Better than i used to be Tim McGraw
TTITLE5=Dancin away with my heart Lady Antebellum
TTITLE6=Until the rain stops Steve Holy
TTITLE7=Over you Miranda Lambert
TTITLE8=Time is love Josh Turner
TTITLE9=Drink on it Blake Shelton
EXTD=
EXTT0=
EXTT1=
EXTT2=
EXTT3=
EXTT4=
EXTT5=
EXTT6=
EXTT7=
EXTT8=
EXTT9=
PLAYORDER=
